<svg width="198px" height="45px" viewBox="0 0 198 45" version="1.1" xmlns="http://www.w3.org/2000/svg" xmlns:xlink="http://www.w3.org/1999/xlink">
    <title>SVG</title>
    <g id="Page-1" stroke="none" stroke-width="1" fill="none" fill-rule="evenodd">
        <g id="Artboard" transform="translate(-460.000000, -92.000000)">
            <g id="SVG" transform="translate(461.691480, 93.662579)">
                <path d="M87.4960201,42.9155464 C87.7251868,42.9155464 87.8632076,42.8921089 87.9100826,42.8452339 C87.9569576,42.7983589 87.9960201,42.7749214 88.0272701,42.7749214 C88.0585201,42.7749214 88.1001868,42.754088 88.1522701,42.7124214 C88.2981034,42.6186714 88.3710201,42.5327339 88.3710201,42.4546089 C88.3710201,42.3764839 88.3840409,42.3374214 88.4100826,42.3374214 L88.4271724,42.3286323 C88.4418209,42.3110542 88.4491451,42.2671089 88.4491451,42.1967964 C88.4491451,41.9467964 88.4178951,41.769713 88.3553951,41.6655464 C88.3137284,41.550963 88.2928951,41.2176297 88.2928951,40.6655464 C88.2928951,39.6238797 88.3710201,37.800963 88.5272701,35.1967964 C88.6210201,33.6551297 88.6887284,32.8842964 88.7303951,32.8842964 C88.8345618,32.832213 89.1887284,32.7332547 89.7928951,32.5874214 C90.6262284,32.410338 91.2043534,32.3113797 91.5272701,32.2905464 C92.9647701,32.1238797 93.6835201,31.8895047 93.6835201,31.5874214 C93.6835201,31.5145047 93.7043534,31.4598172 93.7460201,31.4233589 C93.7876868,31.3869005 93.8085201,31.3582547 93.8085201,31.3374214 C93.8085201,31.316588 93.7902909,31.2879422 93.7538326,31.2514839 C93.7173743,31.2150255 93.6991451,31.1863797 93.6991451,31.1655464 C93.6991451,31.1551297 93.7121659,31.1421089 93.7382076,31.1264839 C93.7642493,31.1108589 93.7824784,31.0926297 93.7928951,31.0717964 C93.7928951,31.0405464 93.7460201,30.9676297 93.6522701,30.8530464 C93.5481034,30.6967964 93.4960201,30.6004422 93.4960201,30.5639839 C93.4960201,30.5275255 93.4543534,30.5066922 93.3710201,30.5014839 C93.2876868,30.4962755 93.2408118,30.4702339 93.2303951,30.4233589 C93.2199784,30.3764839 93.1158118,30.3530464 92.9178951,30.3530464 C92.7512284,30.3530464 92.5116451,30.3738797 92.1991451,30.4155464 C91.0845618,30.550963 90.1887284,30.691588 89.5116451,30.8374214 L89.5116451,30.8374214 L88.8710201,30.9624214 C88.8710201,30.6499214 88.9856034,29.4832547 89.2147701,27.4624214 C89.4856034,25.1082547 89.6366451,23.8686714 89.6678951,23.7436714 C89.6991451,23.660338 89.7356034,23.613463 89.7772701,23.6030464 C90.0272701,23.4988797 91.4231034,23.285338 93.9647701,22.9624214 C94.9751868,22.8270047 96.3033118,22.707213 97.9491451,22.6030464 C98.5533118,22.582213 98.9960201,22.519713 99.2772701,22.4155464 C99.5585201,22.3113797 99.7512284,22.1082547 99.8553951,21.8061714 C99.8553951,21.7749214 99.8449784,21.7462755 99.8241451,21.7202339 C99.8033118,21.6941922 99.7928951,21.6707547 99.7928951,21.6499214 C99.7928951,21.629088 99.8033118,21.6056505 99.8241451,21.5796089 C99.8449784,21.5535672 99.8553951,21.5301297 99.8553951,21.5092964 C99.8553951,21.4676297 99.8085201,21.3999214 99.7147701,21.3061714 C99.6001868,21.160338 99.5428951,21.050963 99.5428951,20.9780464 C99.5428951,20.9467964 99.4856034,20.9311714 99.3710201,20.9311714 C99.2460201,20.8374214 99.0793534,20.7905464 98.8710201,20.7905464 C96.9543534,20.8738797 95.0324784,21.035338 93.1053951,21.2749214 C89.8137284,21.7020047 86.9126868,22.2592964 84.4022701,22.9467964 C83.1835201,23.2905464 82.3814368,23.582213 81.9960201,23.8217964 C81.6835201,24.0301297 81.4908118,24.175963 81.4178951,24.2592964 C81.3449784,24.3426297 81.3085201,24.4676297 81.3085201,24.6342964 C81.3085201,24.8738797 81.3606034,25.0405464 81.4647701,25.1342964 L81.4647701,25.1342964 L81.5428951,25.2280464 L81.5272701,25.2436714 C81.5272701,25.2645047 81.5376868,25.2905464 81.5585201,25.3217964 C81.6106034,25.394713 81.6600826,25.4311714 81.7069576,25.4311714 C81.7538326,25.4311714 81.7850826,25.4494005 81.8007076,25.4858589 C81.8163326,25.5223172 81.8762284,25.550963 81.9803951,25.5717964 C82.1574784,25.6238797 82.3553951,25.6499214 82.5741451,25.6499214 C82.7199784,25.6499214 82.8762284,25.6082547 83.0428951,25.5249214 C83.3658118,25.3999214 83.5272701,25.2749214 83.5272701,25.1499214 C83.5272701,25.0770047 83.9022701,24.9363797 84.6522701,24.7280464 C86.1001868,24.3217964 87.0324784,24.0926297 87.4491451,24.0405464 C87.5637284,24.0405464 87.6210201,24.0717964 87.6210201,24.1342964 C87.3397701,26.4467964 87.0897701,28.8113797 86.8710201,31.2280464 C86.8501868,31.488463 86.7876868,31.629088 86.6835201,31.6499214 C86.4960201,31.691588 85.9856034,31.8738797 85.1522701,32.1967964 C83.7043534,32.738463 82.8866451,33.1863797 82.6991451,33.5405464 C82.6783118,33.6238797 82.6678951,33.7592964 82.6678951,33.9467964 C82.6887284,34.144713 82.7329993,34.254088 82.8007076,34.2749214 C82.8684159,34.2957547 82.9022701,34.3217964 82.9022701,34.3530464 C82.8918534,34.394713 82.8866451,34.4520047 82.8866451,34.5249214 C82.8970618,34.535338 82.9413326,34.5405464 83.0194576,34.5405464 C83.0975826,34.5405464 83.1470618,34.5717964 83.1678951,34.6342964 C83.1887284,34.6967964 83.3762284,34.7280464 83.7303951,34.7280464 C83.8449784,34.7280464 83.9543534,34.691588 84.0585201,34.6186714 C84.0897701,34.6082547 84.1184159,34.6030464 84.1444576,34.6030464 C84.1704993,34.6030464 84.2356034,34.5613797 84.3397701,34.4780464 C84.4439368,34.394713 84.7981034,34.2332547 85.4022701,33.9936714 C86.1939368,33.7020047 86.6001868,33.5561714 86.6210201,33.5561714 C86.6418534,33.5561714 86.6574784,33.5613797 86.6678951,33.5717964 C86.6678951,33.6967964 86.6470618,34.082213 86.6053951,34.7280464 C86.4491451,37.3113797 86.3710201,39.097838 86.3710201,40.0874214 C86.3710201,41.191588 86.4022701,41.832213 86.4647701,42.0092964 C86.5897701,42.425963 86.7460201,42.675963 86.9335201,42.7592964 C86.9856034,42.769713 87.0428951,42.8113797 87.1053951,42.8842964 L87.1053951,42.8842964 L87.1678951,42.8686714 C87.1887284,42.8686714 87.2277909,42.8764839 87.2850826,42.8921089 C87.3423743,42.9077339 87.4126868,42.9155464 87.4960201,42.9155464 Z M100.58977,37.8842964 C100.641853,37.8842964 100.678312,37.8738797 100.699145,37.8530464 C100.719978,37.832213 100.772062,37.8217964 100.855395,37.8217964 C100.938728,37.8217964 100.993416,37.8035672 101.019458,37.7671089 C101.045499,37.7306505 101.074145,37.7124214 101.105395,37.7124214 L101.105395,37.7124214 L101.12102,37.7124214 C101.141853,37.7124214 101.178312,37.691588 101.230395,37.6499214 C101.386645,37.5457547 101.46477,37.4650255 101.46477,37.4077339 C101.46477,37.3504422 101.482999,37.3035672 101.519458,37.2671089 C101.555916,37.2306505 101.574145,37.1967964 101.574145,37.1655464 C101.574145,37.1342964 101.563728,37.1004422 101.542895,37.0639839 C101.522062,37.0275255 101.511645,36.9988797 101.511645,36.9780464 C101.511645,36.9676297 101.522062,36.957213 101.542895,36.9467964 C101.563728,36.9363797 101.574145,36.9207547 101.574145,36.8999214 C101.574145,36.8686714 101.55852,36.8217964 101.52727,36.7592964 C101.423103,36.5926297 101.360603,35.6238797 101.33977,33.8530464 C101.298103,31.4988797 101.240812,30.0457547 101.167895,29.4936714 C101.136645,29.254088 101.084562,29.082213 101.011645,28.9780464 C100.907478,28.8426297 100.831958,28.7306505 100.785083,28.6421089 C100.738208,28.5535672 100.654874,28.472838 100.535083,28.3999214 C100.415291,28.3270047 100.30852,28.2905464 100.21477,28.2905464 C100.193937,28.2905464 100.08977,28.2436714 99.9022701,28.1499214 C99.5272701,27.910338 99.0845618,27.7905464 98.5741451,27.7905464 C98.1887284,27.7905464 97.8293534,27.8738797 97.4960201,28.0405464 C96.2668534,28.6863797 95.3658118,29.800963 94.7928951,31.3842964 C94.4178951,32.425963 94.2303951,33.4624214 94.2303951,34.4936714 C94.2303951,36.097838 94.7147701,36.8999214 95.6835201,36.8999214 C95.9543534,36.8999214 96.1939368,36.847838 96.4022701,36.7436714 C97.0585201,36.504088 97.8970618,35.3061714 98.9178951,33.1499214 C99.1783118,32.6395047 99.3241451,32.3842964 99.3553951,32.3842964 C99.3762284,32.425963 99.3866451,32.8217964 99.3866451,33.5717964 C99.4178951,35.2592964 99.4595618,36.2905464 99.5116451,36.6655464 C99.6262284,37.3113797 99.8866451,37.691588 100.292895,37.8061714 C100.449145,37.8582547 100.548103,37.8842964 100.58977,37.8842964 Z M96.1835201,34.1811714 C96.2876868,33.0561714 96.5428951,32.082213 96.9491451,31.2592964 C97.4283118,30.300963 97.9335201,29.7332547 98.4647701,29.5561714 L98.4647701,29.5561714 L98.4803951,29.5717964 C98.4803951,29.644713 98.0168534,30.6186714 97.0897701,32.4936714 C96.6522701,33.3686714 96.3501868,33.9311714 96.1835201,34.1811714 Z M103.21477,36.6342964 C103.329353,36.6342964 103.516853,36.582213 103.77727,36.4780464 C103.891853,36.425963 104.001228,36.3374214 104.105395,36.2124214 C104.251228,36.035338 104.485603,35.4520047 104.80852,34.4624214 C105.49602,32.254088 106.298103,30.660338 107.21477,29.6811714 C107.391853,29.4832547 107.532478,29.3842964 107.636645,29.3842964 C107.688728,29.3842964 107.730395,29.4077339 107.761645,29.4546089 C107.792895,29.5014839 107.844978,29.5249214 107.917895,29.5249214 C107.990812,29.5249214 108.074145,29.5405464 108.167895,29.5717964 C108.209562,29.5926297 108.24602,29.6030464 108.27727,29.6030464 C108.30852,29.6030464 108.329353,29.5926297 108.33977,29.5717964 C108.40227,29.5405464 108.469978,29.5249214 108.542895,29.5249214 C108.615812,29.5249214 108.65227,29.5092964 108.65227,29.4780464 C108.65227,29.4467964 108.68352,29.4311714 108.74602,29.4311714 C108.80852,29.4311714 108.847583,29.410338 108.863208,29.3686714 C108.878833,29.3270047 108.917895,29.2931505 108.980395,29.2671089 C109.042895,29.2410672 109.074145,29.2046089 109.074145,29.1577339 C109.074145,29.1108589 109.100187,29.050963 109.15227,28.9780464 C109.18352,28.9363797 109.199145,28.9051297 109.199145,28.8842964 C109.199145,28.8530464 109.188728,28.8217964 109.167895,28.7905464 C109.147062,28.7592964 109.136645,28.7332547 109.136645,28.7124214 C109.136645,28.6811714 109.147062,28.6577339 109.167895,28.6421089 C109.188728,28.6264839 109.199145,28.597838 109.199145,28.5561714 L109.199145,28.5561714 L108.90227,28.1030464 C108.641853,27.6967964 108.21477,27.4936714 107.62102,27.4936714 C107.162687,27.4936714 106.631437,27.754088 106.02727,28.2749214 C105.65227,28.597838 105.329353,28.9520047 105.05852,29.3374214 C104.912687,29.566588 104.813728,29.6811714 104.761645,29.6811714 C104.761645,29.6395047 104.772062,29.597838 104.792895,29.5561714 C104.834562,29.535338 104.855395,29.394713 104.855395,29.1342964 C104.855395,29.019713 104.80852,28.8999214 104.71477,28.7749214 C104.62102,28.6499214 104.563728,28.5587755 104.542895,28.5014839 C104.522062,28.4441922 104.49602,28.4155464 104.46477,28.4155464 C104.381437,28.4155464 104.321541,28.394713 104.285083,28.3530464 C104.248624,28.3113797 104.204353,28.285338 104.15227,28.2749214 C103.912687,28.2749214 103.740812,28.285338 103.636645,28.3061714 C103.532478,28.3270047 103.430916,28.3869005 103.331958,28.4858589 C103.232999,28.5848172 103.157478,28.6342964 103.105395,28.6342964 C103.011645,28.6342964 102.87102,28.925963 102.68352,29.5092964 C102.256437,30.8738797 102.042895,32.488463 102.042895,34.3530464 C102.063728,35.2801297 102.162687,35.8738797 102.33977,36.1342964 C102.412687,36.2592964 102.449145,36.332213 102.449145,36.3530464 L102.449145,36.3530464 L102.58977,36.4311714 C102.68352,36.4520047 102.730395,36.4832547 102.730395,36.5249214 C102.730395,36.566588 102.782478,36.5874214 102.886645,36.5874214 C102.990812,36.5874214 103.074145,36.597838 103.136645,36.6186714 C103.157478,36.629088 103.18352,36.6342964 103.21477,36.6342964 Z M111.08977,40.2749214 C111.193937,40.2749214 111.30852,40.2436714 111.43352,40.1811714 C111.49602,40.1395047 111.553312,40.1186714 111.605395,40.1186714 C111.657478,40.1186714 111.725187,40.066588 111.80852,39.9624214 C111.985603,39.754088 112.094978,39.457213 112.136645,39.0717964 C112.219978,38.0301297 112.287687,37.4311714 112.33977,37.2749214 L112.33977,37.2749214 L112.386645,37.2592964 C112.469978,37.2592964 112.563728,37.2749214 112.667895,37.3061714 C112.834562,37.3582547 113.022062,37.3842964 113.230395,37.3842964 C113.438728,37.3842964 113.631437,37.3686714 113.80852,37.3374214 C115.08977,37.004088 116.126228,35.988463 116.917895,34.2905464 C117.532478,32.957213 117.83977,31.6707547 117.83977,30.4311714 C117.83977,29.379088 117.52727,28.5145047 116.90227,27.8374214 C116.568937,27.472838 116.12102,27.2905464 115.55852,27.2905464 C114.83977,27.2905464 114.12102,27.6499214 113.40227,28.3686714 C112.881437,28.910338 112.292895,29.9832547 111.636645,31.5874214 C111.751228,29.2645047 111.954353,26.879088 112.24602,24.4311714 C112.318937,23.8374214 112.355395,23.4363797 112.355395,23.2280464 C112.355395,23.1030464 112.344978,23.0092964 112.324145,22.9467964 C112.303312,22.8842964 112.230395,22.7905464 112.105395,22.6655464 C112.053312,22.613463 112.02727,22.5639839 112.02727,22.5171089 C112.02727,22.4702339 112.011645,22.4467964 111.980395,22.4467964 L111.980395,22.4467964 L111.917895,22.4624214 C111.876228,22.4624214 111.831958,22.4363797 111.785083,22.3842964 C111.738208,22.332213 111.68352,22.3061714 111.62102,22.3061714 C111.24602,22.3061714 111.006437,22.3738797 110.90227,22.5092964 C110.787687,22.6238797 110.706958,22.6837755 110.660083,22.6889839 C110.613208,22.6941922 110.568937,22.7436714 110.52727,22.8374214 C110.454353,23.0145047 110.365812,23.597838 110.261645,24.5874214 C109.990812,27.004088 109.818937,28.925963 109.74602,30.3530464 C109.693937,31.2176297 109.667895,32.254088 109.667895,33.4624214 C109.667895,34.9207547 109.71477,36.2332547 109.80852,37.3999214 C109.93352,39.191588 110.141853,40.0874214 110.43352,40.0874214 C110.454353,40.0874214 110.469978,40.082213 110.480395,40.0717964 C110.522062,40.0717964 110.55852,40.097838 110.58977,40.1499214 C110.62102,40.2020047 110.667895,40.2280464 110.730395,40.2280464 L110.730395,40.2280464 L110.792895,40.2280464 C110.834562,40.2280464 110.878833,40.2358589 110.925708,40.2514839 C110.972583,40.2671089 111.02727,40.2749214 111.08977,40.2749214 Z M113.33977,35.6030464 C113.225187,35.6030464 113.113208,35.566588 113.003833,35.4936714 C112.894458,35.4207547 112.818937,35.3582547 112.77727,35.3061714 C112.735603,35.254088 112.71477,35.1863797 112.71477,35.1030464 C112.71477,35.019713 112.766853,34.7905464 112.87102,34.4155464 C113.52727,31.7801297 114.251228,30.0926297 115.042895,29.3530464 C115.209562,29.1967964 115.33977,29.1186714 115.43352,29.1186714 C115.71477,29.1707547 115.855395,29.5874214 115.855395,30.3686714 C115.855395,31.6811714 115.480395,32.988463 114.730395,34.2905464 C114.230395,35.1655464 113.766853,35.6030464 113.33977,35.6030464 Z M121.511645,37.6342964 C122.188728,37.6342964 122.928312,37.4363797 123.730395,37.0405464 C124.897062,36.4363797 125.49602,35.8061714 125.52727,35.1499214 C125.52727,35.004088 125.475187,34.8686714 125.37102,34.7436714 C125.266853,34.5874214 125.21477,34.4910672 125.21477,34.4546089 C125.21477,34.4181505 125.199145,34.3999214 125.167895,34.3999214 L125.167895,34.3999214 L125.05852,34.4311714 C125.02727,34.4311714 124.998624,34.4077339 124.972583,34.3608589 C124.946541,34.3139839 124.829353,34.2801297 124.62102,34.2592964 C124.537687,34.2592964 124.480395,34.2723172 124.449145,34.2983589 C124.417895,34.3244005 124.373624,34.3374214 124.316333,34.3374214 C124.259041,34.3374214 124.144458,34.410338 123.972583,34.5561714 C123.800708,34.7020047 123.631437,34.8738797 123.46477,35.0717964 C123.33977,35.207213 123.147062,35.3426297 122.886645,35.4780464 C122.428312,35.7280464 121.990812,35.8530464 121.574145,35.8530464 C120.699145,35.8530464 120.261645,35.2020047 120.261645,33.8999214 C120.261645,33.1811714 120.298103,32.8217964 120.37102,32.8217964 L120.37102,32.8217964 L120.58977,32.8374214 C120.93352,32.8374214 121.313728,32.754088 121.730395,32.5874214 C122.772062,32.1395047 123.563728,31.3738797 124.105395,30.2905464 C124.251228,29.9988797 124.347583,29.7671089 124.394458,29.5952339 C124.441333,29.4233589 124.46477,29.2176297 124.46477,28.9780464 C124.46477,28.8530464 124.459562,28.7488797 124.449145,28.6655464 C124.417895,28.5092964 124.30852,28.300963 124.12102,28.0405464 C123.818937,27.582213 123.355395,27.3530464 122.730395,27.3530464 C122.157478,27.3530464 121.542895,27.6030464 120.886645,28.1030464 C119.897062,28.8217964 119.162687,29.910338 118.68352,31.3686714 C118.43352,32.0874214 118.30852,32.925963 118.30852,33.8842964 C118.30852,35.519713 118.829353,36.6342964 119.87102,37.2280464 C120.33977,37.4988797 120.886645,37.6342964 121.511645,37.6342964 Z M120.96477,30.9936714 C120.943937,30.9936714 120.93352,30.9832547 120.93352,30.9624214 C120.93352,30.9311714 121.032478,30.7645047 121.230395,30.4624214 C121.469978,30.097838 121.709562,29.8035672 121.949145,29.5796089 C122.188728,29.3556505 122.33977,29.2436714 122.40227,29.2436714 C122.423103,29.2436714 122.43352,29.254088 122.43352,29.2749214 L122.43352,29.2749214 L122.37102,29.4780464 C122.079353,30.0717964 121.719978,30.519713 121.292895,30.8217964 C121.126228,30.9363797 121.016853,30.9936714 120.96477,30.9936714 Z M143.324145,37.5717964 C144.074145,37.5717964 144.766853,37.1082547 145.40227,36.1811714 C145.787687,35.5874214 146.167895,34.8270047 146.542895,33.8999214 C147.178312,32.2957547 147.49602,30.9155464 147.49602,29.7592964 C147.49602,29.1238797 147.449145,28.707213 147.355395,28.5092964 C147.240812,28.2592964 147.048103,27.972838 146.77727,27.6499214 C146.506437,27.3270047 146.33977,27.1655464 146.27727,27.1655464 L146.27727,27.1655464 L146.261645,27.1655464 C146.240812,27.1655464 146.209562,27.1499214 146.167895,27.1186714 C146.084562,27.0457547 145.980395,27.0092964 145.855395,27.0092964 C145.615812,27.0092964 145.407478,27.0926297 145.230395,27.2592964 C145.126228,27.363463 145.048103,27.4155464 144.99602,27.4155464 C144.891853,27.4155464 144.83977,27.5301297 144.83977,27.7592964 C144.83977,28.1342964 145.011645,28.5145047 145.355395,28.8999214 C145.511645,29.0561714 145.58977,29.300963 145.58977,29.6342964 C145.58977,30.4155464 145.344978,31.488463 144.855395,32.8530464 C144.480395,33.8738797 144.084562,34.707213 143.667895,35.3530464 C143.522062,35.582213 143.423103,35.6967964 143.37102,35.6967964 C143.27727,35.6967964 143.147062,35.5092964 142.980395,35.1342964 C142.844978,34.8530464 142.55852,34.0405464 142.12102,32.6967964 C141.83977,31.8113797 141.522062,31.2020047 141.167895,30.8686714 C140.949145,30.6811714 140.662687,30.5874214 140.30852,30.5874214 C140.016853,30.5874214 139.727791,30.6837755 139.441333,30.8764839 C139.154874,31.0691922 138.917895,31.2645047 138.730395,31.4624214 C138.542895,31.660338 138.313728,31.9520047 138.042895,32.3374214 C137.917895,32.5249214 137.83977,32.6186714 137.80852,32.6186714 C137.74602,32.6186714 137.641853,31.941588 137.49602,30.5874214 C137.46477,30.3061714 137.436124,30.0561714 137.410083,29.8374214 C137.384041,29.6186714 137.37102,29.4962755 137.37102,29.4702339 C137.37102,29.4441922 137.326749,29.3764839 137.238208,29.2671089 C137.149666,29.1577339 137.087166,29.0587755 137.050708,28.9702339 C137.014249,28.8816922 136.975187,28.8374214 136.93352,28.8374214 L136.93352,28.8374214 L136.855395,28.8374214 C136.824145,28.8374214 136.792895,28.8270047 136.761645,28.8061714 C136.688728,28.7332547 136.553312,28.6967964 136.355395,28.6967964 C136.272062,28.6967964 136.209562,28.707213 136.167895,28.7280464 C136.126228,28.7488797 136.100187,28.7592964 136.08977,28.7592964 L136.08977,28.7592964 L136.05852,28.7592964 C136.048103,28.7592964 135.985603,28.8087755 135.87102,28.9077339 C135.756437,29.0066922 135.65227,29.0717964 135.55852,29.1030464 C135.43352,29.1030464 135.37102,29.4051297 135.37102,30.0092964 C135.37102,30.988463 135.443937,31.5770047 135.58977,31.7749214 C135.65227,31.8582547 135.719978,32.129088 135.792895,32.5874214 C136.001228,33.722838 136.219978,34.4754422 136.449145,34.8452339 C136.678312,35.2150255 137.032478,35.3999214 137.511645,35.3999214 C137.626228,35.3999214 137.77727,35.3686714 137.96477,35.3061714 C138.329353,35.1707547 138.813728,34.644713 139.417895,33.7280464 C139.834562,33.0926297 140.05852,32.7749214 140.08977,32.7749214 C140.131437,32.7749214 140.272062,33.175963 140.511645,33.9780464 C140.897062,35.1967964 141.27727,36.0717964 141.65227,36.6030464 C142.100187,37.2488797 142.657478,37.5717964 143.324145,37.5717964 Z M151.167895,37.6342964 C151.844978,37.6342964 152.584562,37.4363797 153.386645,37.0405464 C154.553312,36.4363797 155.15227,35.8061714 155.18352,35.1499214 C155.18352,35.004088 155.131437,34.8686714 155.02727,34.7436714 C154.923103,34.5874214 154.87102,34.4910672 154.87102,34.4546089 C154.87102,34.4181505 154.855395,34.3999214 154.824145,34.3999214 L154.824145,34.3999214 L154.71477,34.4311714 C154.68352,34.4311714 154.654874,34.4077339 154.628833,34.3608589 C154.602791,34.3139839 154.485603,34.2801297 154.27727,34.2592964 C154.193937,34.2592964 154.136645,34.2723172 154.105395,34.2983589 C154.074145,34.3244005 154.029874,34.3374214 153.972583,34.3374214 C153.915291,34.3374214 153.800708,34.410338 153.628833,34.5561714 C153.456958,34.7020047 153.287687,34.8738797 153.12102,35.0717964 C152.99602,35.207213 152.803312,35.3426297 152.542895,35.4780464 C152.084562,35.7280464 151.647062,35.8530464 151.230395,35.8530464 C150.355395,35.8530464 149.917895,35.2020047 149.917895,33.8999214 C149.917895,33.1811714 149.954353,32.8217964 150.02727,32.8217964 L150.02727,32.8217964 L150.24602,32.8374214 C150.58977,32.8374214 150.969978,32.754088 151.386645,32.5874214 C152.428312,32.1395047 153.219978,31.3738797 153.761645,30.2905464 C153.907478,29.9988797 154.003833,29.7671089 154.050708,29.5952339 C154.097583,29.4233589 154.12102,29.2176297 154.12102,28.9780464 C154.12102,28.8530464 154.115812,28.7488797 154.105395,28.6655464 C154.074145,28.5092964 153.96477,28.300963 153.77727,28.0405464 C153.475187,27.582213 153.011645,27.3530464 152.386645,27.3530464 C151.813728,27.3530464 151.199145,27.6030464 150.542895,28.1030464 C149.553312,28.8217964 148.818937,29.910338 148.33977,31.3686714 C148.08977,32.0874214 147.96477,32.925963 147.96477,33.8842964 C147.96477,35.519713 148.485603,36.6342964 149.52727,37.2280464 C149.99602,37.4988797 150.542895,37.6342964 151.167895,37.6342964 Z M150.62102,30.9936714 C150.600187,30.9936714 150.58977,30.9832547 150.58977,30.9624214 C150.58977,30.9311714 150.688728,30.7645047 150.886645,30.4624214 C151.126228,30.097838 151.365812,29.8035672 151.605395,29.5796089 C151.844978,29.3556505 151.99602,29.2436714 152.05852,29.2436714 C152.079353,29.2436714 152.08977,29.254088 152.08977,29.2749214 L152.08977,29.2749214 L152.02727,29.4780464 C151.735603,30.0717964 151.376228,30.519713 150.949145,30.8217964 C150.782478,30.9363797 150.673103,30.9936714 150.62102,30.9936714 Z M158.261645,37.7124214 C159.386645,37.7124214 160.657478,37.0249214 162.074145,35.6499214 C162.938728,34.8270047 163.376228,34.1238797 163.386645,33.5405464 L163.386645,33.5405464 L163.40227,33.2749214 C163.40227,33.222838 163.313728,33.066588 163.136645,32.8061714 C163.094978,32.754088 163.068937,32.7046089 163.05852,32.6577339 C163.048103,32.6108589 163.009041,32.5874214 162.941333,32.5874214 C162.873624,32.5874214 162.821541,32.5639839 162.785083,32.5171089 C162.748624,32.4702339 162.600187,32.4467964 162.33977,32.4467964 C162.298103,32.4467964 162.266853,32.4546089 162.24602,32.4702339 C162.225187,32.4858589 162.206958,32.4936714 162.191333,32.4936714 L162.191333,32.4936714 L162.128833,32.4936714 C162.102791,32.4936714 162.035083,32.5483589 161.925708,32.6577339 C161.816333,32.7671089 161.740812,32.8217964 161.699145,32.8217964 L161.699145,32.8217964 L161.667895,32.8217964 C161.584562,32.8217964 161.519458,32.972838 161.472583,33.2749214 C161.425708,33.5770047 161.131437,33.9936714 160.58977,34.5249214 C159.610603,35.472838 158.860603,35.9467964 158.33977,35.9467964 C157.943937,35.9467964 157.704353,35.566588 157.62102,34.8061714 C157.600187,34.660338 157.58977,34.5092964 157.58977,34.3530464 C157.58977,33.863463 157.688728,33.269713 157.886645,32.5717964 C158.084562,31.8738797 158.407478,31.1551297 158.855395,30.4155464 C159.605395,29.207213 160.355395,28.6030464 161.105395,28.6030464 C161.292895,28.6030464 161.469978,28.644713 161.636645,28.7280464 C161.876228,28.8530464 162.084562,28.9155464 162.261645,28.9155464 C162.469978,28.9155464 162.600187,28.879088 162.65227,28.8061714 C162.68352,28.7749214 162.717374,28.7592964 162.753833,28.7592964 C162.790291,28.7592964 162.83977,28.738463 162.90227,28.6967964 C163.048103,28.582213 163.12102,28.5014839 163.12102,28.4546089 C163.12102,28.4077339 163.136645,28.3530464 163.167895,28.2905464 C163.188728,28.2801297 163.199145,28.2592964 163.199145,28.2280464 C163.199145,28.1967964 163.188728,28.1577339 163.167895,28.1108589 C163.147062,28.0639839 163.136645,28.0301297 163.136645,28.0092964 C163.136645,27.9780464 163.144458,27.9598172 163.160083,27.9546089 C163.175708,27.9494005 163.18352,27.9311714 163.18352,27.8999214 C163.18352,27.7645047 163.12102,27.660338 162.99602,27.5874214 C162.954353,27.5457547 162.907478,27.472838 162.855395,27.3686714 C162.657478,27.004088 162.110603,26.8217964 161.21477,26.8217964 L161.21477,26.8217964 L160.824145,26.8374214 C160.147062,26.879088 159.417895,27.2124214 158.636645,27.8374214 C158.032478,28.3270047 157.516853,28.9155464 157.08977,29.6030464 C156.131437,31.2488797 155.65227,32.8270047 155.65227,34.3374214 C155.65227,35.1811714 155.818937,35.8999214 156.15227,36.4936714 C156.62102,37.3061714 157.324145,37.7124214 158.261645,37.7124214 Z M170.011645,37.6811714 C170.261645,37.6811714 170.490812,37.6030464 170.699145,37.4467964 C170.813728,37.3530464 170.87102,37.2827339 170.87102,37.2358589 C170.87102,37.1889839 170.897062,37.1395047 170.949145,37.0874214 C170.969978,37.066588 170.980395,37.0457547 170.980395,37.0249214 C170.980395,36.9936714 170.969978,36.9546089 170.949145,36.9077339 C170.928312,36.8608589 170.917895,36.8270047 170.917895,36.8061714 C170.917895,36.785338 170.928312,36.7723172 170.949145,36.7671089 L170.966506,36.7592964 C170.975765,36.7523519 170.980395,36.7419353 170.980395,36.7280464 C170.980395,36.644713 170.923103,36.5223172 170.80852,36.3608589 C170.693937,36.1994005 170.605395,35.9363797 170.542895,35.5717964 C170.522062,35.4467964 170.480395,33.738463 170.417895,30.4467964 C170.386645,29.5613797 170.30852,28.988463 170.18352,28.7280464 C170.110603,28.582213 170.006437,28.4155464 169.87102,28.2280464 C169.662687,27.894713 169.334562,27.7280464 168.886645,27.7280464 C168.011645,27.7280464 167.136645,28.6186714 166.261645,30.3999214 C166.022062,30.879088 165.886645,31.1342964 165.855395,31.1655464 L165.855395,31.1655464 L165.855395,31.0561714 C165.855395,30.1499214 165.943937,28.6238797 166.12102,26.4780464 C166.18352,25.6238797 166.251228,24.8842964 166.324145,24.2592964 C166.365812,23.800963 166.386645,23.5249214 166.386645,23.4311714 C166.386645,23.3270047 166.33977,23.2280464 166.24602,23.1342964 C166.131437,22.957213 166.068937,22.8452339 166.05852,22.7983589 C166.048103,22.7514839 166.011645,22.7280464 165.949145,22.7280464 C165.886645,22.7280464 165.834562,22.707213 165.792895,22.6655464 C165.751228,22.6238797 165.594978,22.5926297 165.324145,22.5717964 C165.261645,22.582213 165.230395,22.5952339 165.230395,22.6108589 C165.230395,22.6264839 165.21477,22.6342964 165.18352,22.6342964 L165.18352,22.6342964 L165.136645,22.6342964 C165.074145,22.6342964 164.99602,22.6863797 164.90227,22.7905464 C164.80852,22.894713 164.732999,22.9467964 164.675708,22.9467964 C164.618416,22.9467964 164.571541,22.9780464 164.535083,23.0405464 C164.498624,23.1030464 164.449145,23.4155464 164.386645,23.9780464 C164.042895,27.144713 163.87102,29.7957547 163.87102,31.9311714 C163.87102,33.1499214 163.928312,34.1967964 164.042895,35.0717964 C164.126228,35.9363797 164.235603,36.4520047 164.37102,36.6186714 C164.443937,36.7436714 164.480395,36.8191922 164.480395,36.8452339 C164.480395,36.8712755 164.522062,36.8999214 164.605395,36.9311714 C164.647062,36.941588 164.68352,36.957213 164.71477,36.9780464 C164.74602,36.9988797 164.772062,37.0145047 164.792895,37.0249214 C164.834562,37.0770047 164.959562,37.1030464 165.167895,37.1030464 C165.657478,37.1030464 166.011645,36.9051297 166.230395,36.5092964 C166.324145,36.269713 166.443937,35.832213 166.58977,35.1967964 C166.93352,33.769713 167.37102,32.519713 167.90227,31.4467964 C168.235603,30.7592964 168.423103,30.4051297 168.46477,30.3842964 C168.46477,30.4155464 168.469978,30.6421089 168.480395,31.0639839 C168.490812,31.4858589 168.49602,32.0092964 168.49602,32.6342964 C168.506437,34.019713 168.540291,35.0014839 168.597583,35.5796089 C168.654874,36.1577339 168.766853,36.582213 168.93352,36.8530464 C169.173103,37.2905464 169.33977,37.5092964 169.43352,37.5092964 C169.46477,37.5092964 169.501228,37.5301297 169.542895,37.5717964 C169.584562,37.613463 169.628833,37.6342964 169.675708,37.6342964 C169.722583,37.6342964 169.769458,37.6421089 169.816333,37.6577339 C169.863208,37.6733589 169.928312,37.6811714 170.011645,37.6811714 Z M173.011645,37.2280464 C173.209562,37.2280464 173.391853,37.207213 173.55852,37.1655464 C174.287687,36.925963 174.954353,36.457213 175.55852,35.7592964 C176.30852,34.8738797 176.68352,34.0092964 176.68352,33.1655464 C176.68352,32.644713 176.485603,32.129088 176.08977,31.6186714 C175.923103,31.3895047 175.704353,31.191588 175.43352,31.0249214 C175.162687,30.8582547 174.751228,30.6655464 174.199145,30.4467964 C174.084562,30.4051297 173.993416,30.3686714 173.925708,30.3374214 C173.857999,30.3061714 173.824145,30.254088 173.824145,30.1811714 C173.844978,30.0770047 173.938728,29.910338 174.105395,29.6811714 C174.490812,29.1395047 174.818937,28.7957547 175.08977,28.6499214 C175.193937,28.629088 175.253833,28.6030464 175.269458,28.5717964 C175.285083,28.5405464 175.298103,28.519713 175.30852,28.5092964 L175.30852,28.5092964 L175.324145,28.5092964 L175.33977,28.5249214 C175.360603,28.5249214 175.397062,28.504088 175.449145,28.4624214 C175.594978,28.3686714 175.667895,28.2931505 175.667895,28.2358589 C175.667895,28.1785672 175.688728,28.129088 175.730395,28.0874214 C175.772062,28.0457547 175.792895,28.0092964 175.792895,27.9780464 C175.792895,27.957213 175.782478,27.925963 175.761645,27.8842964 C175.740812,27.8426297 175.730395,27.8113797 175.730395,27.7905464 C175.730395,27.769713 175.743416,27.7566922 175.769458,27.7514839 C175.795499,27.7462755 175.80852,27.7280464 175.80852,27.6967964 C175.80852,27.6655464 175.753833,27.5848172 175.644458,27.4546089 C175.535083,27.3244005 175.480395,27.2436714 175.480395,27.2124214 C175.449145,27.129088 175.360603,27.0613797 175.21477,27.0092964 C175.110603,26.9467964 174.96477,26.9155464 174.77727,26.9155464 C174.40227,26.9155464 173.928312,27.1811714 173.355395,27.7124214 C172.334562,28.660338 171.824145,29.4988797 171.824145,30.2280464 C171.824145,30.8217964 172.05852,31.2905464 172.52727,31.6342964 C172.74602,31.800963 173.071541,31.9676297 173.503833,32.1342964 C173.936124,32.300963 174.24602,32.457213 174.43352,32.6030464 C174.62102,32.7488797 174.71477,32.9311714 174.71477,33.1499214 C174.71477,33.722838 174.318937,34.4051297 173.52727,35.1967964 C173.52727,34.9676297 173.501228,34.8426297 173.449145,34.8217964 C173.292895,34.6863797 173.21477,34.5561714 173.21477,34.4311714 L173.21477,34.4311714 L173.230395,34.3999214 C173.230395,34.3895047 173.227791,34.3816922 173.222583,34.3764839 C173.217374,34.3712755 173.204353,34.3686714 173.18352,34.3686714 L173.18352,34.3686714 L173.074145,34.3842964 C173.022062,34.3842964 172.982999,34.3582547 172.956958,34.3061714 C172.930916,34.254088 172.87102,34.2280464 172.77727,34.2280464 C172.443937,34.2280464 172.204353,34.300963 172.05852,34.4467964 C171.93352,34.550963 171.850187,34.6030464 171.80852,34.6030464 C171.766853,34.6030464 171.699145,34.7020047 171.605395,34.8999214 C171.501228,35.160338 171.449145,35.4155464 171.449145,35.6655464 C171.449145,35.9780464 171.532478,36.2801297 171.699145,36.5717964 C171.969978,37.0092964 172.407478,37.2280464 173.011645,37.2280464 Z M180.355395,37.6342964 C181.032478,37.6342964 181.772062,37.4363797 182.574145,37.0405464 C183.740812,36.4363797 184.33977,35.8061714 184.37102,35.1499214 C184.37102,35.004088 184.318937,34.8686714 184.21477,34.7436714 C184.110603,34.5874214 184.05852,34.4910672 184.05852,34.4546089 C184.05852,34.4181505 184.042895,34.3999214 184.011645,34.3999214 L184.011645,34.3999214 L183.90227,34.4311714 C183.87102,34.4311714 183.842374,34.4077339 183.816333,34.3608589 C183.790291,34.3139839 183.673103,34.2801297 183.46477,34.2592964 C183.381437,34.2592964 183.324145,34.2723172 183.292895,34.2983589 C183.261645,34.3244005 183.217374,34.3374214 183.160083,34.3374214 C183.102791,34.3374214 182.988208,34.410338 182.816333,34.5561714 C182.644458,34.7020047 182.475187,34.8738797 182.30852,35.0717964 C182.18352,35.207213 181.990812,35.3426297 181.730395,35.4780464 C181.272062,35.7280464 180.834562,35.8530464 180.417895,35.8530464 C179.542895,35.8530464 179.105395,35.2020047 179.105395,33.8999214 C179.105395,33.1811714 179.141853,32.8217964 179.21477,32.8217964 L179.21477,32.8217964 L179.43352,32.8374214 C179.77727,32.8374214 180.157478,32.754088 180.574145,32.5874214 C181.615812,32.1395047 182.407478,31.3738797 182.949145,30.2905464 C183.094978,29.9988797 183.191333,29.7671089 183.238208,29.5952339 C183.285083,29.4233589 183.30852,29.2176297 183.30852,28.9780464 C183.30852,28.8530464 183.303312,28.7488797 183.292895,28.6655464 C183.261645,28.5092964 183.15227,28.300963 182.96477,28.0405464 C182.662687,27.582213 182.199145,27.3530464 181.574145,27.3530464 C181.001228,27.3530464 180.386645,27.6030464 179.730395,28.1030464 C178.740812,28.8217964 178.006437,29.910338 177.52727,31.3686714 C177.27727,32.0874214 177.15227,32.925963 177.15227,33.8842964 C177.15227,35.519713 177.673103,36.6342964 178.71477,37.2280464 C179.18352,37.4988797 179.730395,37.6342964 180.355395,37.6342964 Z M179.80852,30.9936714 C179.787687,30.9936714 179.77727,30.9832547 179.77727,30.9624214 C179.77727,30.9311714 179.876228,30.7645047 180.074145,30.4624214 C180.313728,30.097838 180.553312,29.8035672 180.792895,29.5796089 C181.032478,29.3556505 181.18352,29.2436714 181.24602,29.2436714 C181.266853,29.2436714 181.27727,29.254088 181.27727,29.2749214 L181.27727,29.2749214 L181.21477,29.4780464 C180.923103,30.0717964 180.563728,30.519713 180.136645,30.8217964 C179.969978,30.9363797 179.860603,30.9936714 179.80852,30.9936714 Z M186.18352,38.2436714 C186.21477,38.2124214 186.261645,38.1967964 186.324145,38.1967964 C186.386645,38.1967964 186.469978,38.1707547 186.574145,38.1186714 C186.824145,37.9832547 186.949145,37.8686714 186.949145,37.7749214 C186.949145,37.7332547 186.96477,37.6967964 186.99602,37.6655464 C187.02727,37.6342964 187.042895,37.6082547 187.042895,37.5874214 C187.042895,37.5561714 187.02727,37.4936714 186.99602,37.3999214 L186.99602,37.3999214 L186.99602,37.3530464 C186.99602,37.332213 187.001228,37.316588 187.011645,37.3061714 C187.022062,37.2957547 187.02727,37.285338 187.02727,37.2749214 C187.02727,37.2124214 187.011645,37.144713 186.980395,37.0717964 C186.855395,36.7592964 186.792895,35.113463 186.792895,32.1342964 C186.792895,30.2176297 186.959562,28.2957547 187.292895,26.3686714 C187.574145,24.754088 187.71477,23.769713 187.71477,23.4155464 C187.71477,23.1863797 187.665291,23.0223172 187.566333,22.9233589 C187.467374,22.8244005 187.404874,22.7358589 187.378833,22.6577339 C187.352791,22.5796089 187.30852,22.5405464 187.24602,22.5405464 C187.18352,22.5405464 187.141853,22.519713 187.12102,22.4780464 C187.068937,22.4363797 186.975187,22.410338 186.83977,22.3999214 C186.52727,22.3999214 186.287687,22.4832547 186.12102,22.6499214 C186.037687,22.7436714 185.969978,22.7905464 185.917895,22.7905464 C185.803312,22.7905464 185.740812,23.0145047 185.730395,23.4624214 C185.730395,23.7124214 185.65227,24.2905464 185.49602,25.1967964 C185.225187,26.675963 185.048103,27.910338 184.96477,28.8999214 C184.881437,29.8895047 184.83977,31.207213 184.83977,32.8530464 C184.83977,35.5613797 184.949145,37.160338 185.167895,37.6499214 C185.261645,37.8582547 185.373624,38.004088 185.503833,38.0874214 C185.634041,38.1707547 185.860603,38.222838 186.18352,38.2436714 Z M194.30852,38.6499214 C194.329353,38.6499214 194.352791,38.6395047 194.378833,38.6186714 C194.404874,38.597838 194.462166,38.5874214 194.550708,38.5874214 C194.639249,38.5874214 194.696541,38.5691922 194.722583,38.5327339 C194.748624,38.4962755 194.77727,38.4780464 194.80852,38.4780464 C194.83977,38.4780464 194.90227,38.4389839 194.99602,38.3608589 C195.08977,38.2827339 195.136645,38.2202339 195.136645,38.1733589 C195.136645,38.1264839 195.157478,38.0796089 195.199145,38.0327339 C195.240812,37.9858589 195.261645,37.8895047 195.261645,37.7436714 C195.251228,37.597838 195.219978,37.4363797 195.167895,37.2592964 C195.032478,36.8530464 194.96477,36.2957547 194.96477,35.5874214 C194.96477,35.0145047 195.016853,33.9936714 195.12102,32.5249214 C195.21477,31.535338 195.261645,30.691588 195.261645,29.9936714 L195.261645,29.9936714 L195.261645,29.1342964 C195.251228,28.957213 195.126228,28.691588 194.886645,28.3374214 C194.688728,28.0561714 194.407478,27.9155464 194.042895,27.9155464 C193.761645,27.9155464 193.443937,28.0457547 193.08977,28.3061714 C192.87102,28.4624214 192.699145,28.6082547 192.574145,28.7436714 C192.084562,29.2957547 191.318937,30.4832547 190.27727,32.3061714 C190.193937,32.4520047 190.147062,32.5249214 190.136645,32.5249214 L190.136645,32.5249214 L190.136645,32.4780464 C190.136645,32.1967964 190.193937,31.644713 190.30852,30.8217964 C190.360603,30.4051297 190.386645,30.113463 190.386645,29.9467964 C190.386645,29.7592964 190.334562,29.6056505 190.230395,29.4858589 C190.126228,29.3660672 190.074145,29.2801297 190.074145,29.2280464 C190.074145,29.175963 190.05852,29.1499214 190.02727,29.1499214 L190.02727,29.1499214 L189.980395,29.1655464 C189.907478,29.1655464 189.844978,29.1395047 189.792895,29.0874214 C189.740812,29.035338 189.610603,29.0092964 189.40227,29.0092964 C189.318937,29.0092964 189.269458,29.019713 189.253833,29.0405464 C189.238208,29.0613797 189.225187,29.0717964 189.21477,29.0717964 L189.21477,29.0717964 L189.15227,29.0717964 C189.12102,29.0717964 189.048103,29.1186714 188.93352,29.2124214 C188.83977,29.3270047 188.761645,29.3842964 188.699145,29.3842964 C188.574145,29.3842964 188.46477,29.738463 188.37102,30.4467964 C188.24602,31.4676297 188.18352,32.316588 188.18352,32.9936714 C188.18352,34.785338 188.542895,35.7280464 189.261645,35.8217964 C189.313728,35.8217964 189.386645,35.8374214 189.480395,35.8686714 L189.480395,35.8686714 L189.542895,35.8686714 C189.917895,35.8270047 190.219978,35.722838 190.449145,35.5561714 C190.730395,35.347838 191.188728,34.660338 191.824145,33.4936714 C192.699145,31.9207547 193.178312,31.1342964 193.261645,31.1342964 C193.261645,31.4363797 193.188728,32.3895047 193.042895,33.9936714 C193.032478,34.316588 193.02727,34.8061714 193.02727,35.4624214 L193.02727,36.1499214 C193.048103,36.941588 193.188728,37.5874214 193.449145,38.0874214 C193.563728,38.3061714 193.654874,38.4155464 193.722583,38.4155464 C193.790291,38.4155464 193.834562,38.4441922 193.855395,38.5014839 C193.876228,38.5587755 193.96477,38.5926297 194.12102,38.6030464 C194.162687,38.613463 194.196541,38.6238797 194.222583,38.6342964 C194.248624,38.644713 194.27727,38.6499214 194.30852,38.6499214 Z" id="Farbewechseln" fill="#434F54" fill-rule="nonzero"></path>
                <g id="Arrow" stroke="var(--color-primary)" stroke-linecap="round" stroke-width="2">
                    <path d="M73.6827604,31.3628259 C55.4178353,30.7725744 40.545323,28.2086533 29.0652236,23.6710623 C17.5851242,19.1334714 9.66622299,12.6889244 5.30852009,4.33742137" id="Path"></path>
                    <path d="M16.1530279,3.03704379 C13.6392045,1.63963904 11.354406,0.731839634 9.29863237,0.313645557 C7.73219522,-0.00500564373 6.09491284,-0.0808542953 4.38678525,0.0860996026 L4.38678576,0.086104857 C3.35763253,0.186695201 2.45283033,0.810209378 1.99241085,1.73610823 C1.18333958,3.36314231 0.621103415,5.00751159 0.305702371,6.66921605 C-0.10190079,8.81669149 -0.10190079,11.0175765 0.305702371,13.2718711" id="Path-2" stroke-linejoin="round"></path>
                </g>
            </g>
        </g>
    </g>
</svg>